<mxfile host="65bd71144e">
    <diagram id="yk8NF5s4lmzRFMYtV1e7" name="Page-1">
        <mxGraphModel dx="1209" dy="792" grid="1" gridSize="10" guides="1" tooltips="1" connect="1" arrows="1" fold="1" page="1" pageScale="1" pageWidth="827" pageHeight="1169" math="0" shadow="0">
            <root>
                <mxCell id="0"/>
                <mxCell id="1" parent="0"/>
                <mxCell id="2" value="Inserir Pedido" style="shape=umlFrame;whiteSpace=wrap;html=1;width=80;height=40;" parent="1" vertex="1">
                    <mxGeometry x="20" y="80" width="780" height="370" as="geometry"/>
                </mxCell>
                <mxCell id="7" value="" style="shape=umlLifeline;participant=umlActor;perimeter=lifelinePerimeter;whiteSpace=wrap;html=1;container=1;collapsible=0;recursiveResize=0;verticalAlign=top;spacingTop=36;outlineConnect=0;" parent="1" vertex="1">
                    <mxGeometry x="80" y="140" width="20" height="260" as="geometry"/>
                </mxCell>
                <mxCell id="10" value="" style="html=1;points=[];perimeter=orthogonalPerimeter;" parent="7" vertex="1">
                    <mxGeometry x="5" y="60" width="10" height="80" as="geometry"/>
                </mxCell>
                <mxCell id="35" value="" style="html=1;points=[];perimeter=orthogonalPerimeter;" parent="7" vertex="1">
                    <mxGeometry x="5" y="160" width="10" height="30" as="geometry"/>
                </mxCell>
                <mxCell id="8" value="Banco de Dados" style="shape=umlLifeline;perimeter=lifelinePerimeter;whiteSpace=wrap;html=1;container=1;collapsible=0;recursiveResize=0;outlineConnect=0;" parent="1" vertex="1">
                    <mxGeometry x="670" y="140" width="100" height="260" as="geometry"/>
                </mxCell>
                <mxCell id="22" value="" style="html=1;points=[];perimeter=orthogonalPerimeter;" parent="8" vertex="1">
                    <mxGeometry x="45" y="60" width="10" height="80" as="geometry"/>
                </mxCell>
                <mxCell id="9" value="Usuário" style="text;html=1;strokeColor=none;fillColor=none;align=center;verticalAlign=middle;whiteSpace=wrap;rounded=0;" parent="1" vertex="1">
                    <mxGeometry x="100" y="120" width="60" height="30" as="geometry"/>
                </mxCell>
                <mxCell id="20" value="" style="html=1;verticalAlign=bottom;endArrow=block;exitX=1.167;exitY=0.396;exitDx=0;exitDy=0;exitPerimeter=0;entryX=0.083;entryY=0.406;entryDx=0;entryDy=0;entryPerimeter=0;" parent="1" source="13" target="22" edge="1">
                    <mxGeometry width="80" relative="1" as="geometry">
                        <mxPoint x="390" y="230" as="sourcePoint"/>
                        <mxPoint x="690" y="232" as="targetPoint"/>
                    </mxGeometry>
                </mxCell>
                <mxCell id="21" value="2: Validar fomato e inserir os dados" style="edgeLabel;html=1;align=center;verticalAlign=middle;resizable=0;points=[];" parent="20" vertex="1" connectable="0">
                    <mxGeometry x="0.219" relative="1" as="geometry">
                        <mxPoint x="-27" y="-14" as="offset"/>
                    </mxGeometry>
                </mxCell>
                <mxCell id="29" value="" style="html=1;verticalAlign=bottom;endArrow=block;exitX=0;exitY=0.865;exitDx=0;exitDy=0;exitPerimeter=0;entryX=1.167;entryY=0.844;entryDx=0;entryDy=0;entryPerimeter=0;" parent="1" source="22" target="13" edge="1">
                    <mxGeometry width="80" relative="1" as="geometry">
                        <mxPoint x="396.6700000000001" y="289.58000000000004" as="sourcePoint"/>
                        <mxPoint x="695.8300000000002" y="290.3800000000001" as="targetPoint"/>
                    </mxGeometry>
                </mxCell>
                <mxCell id="34" value="&lt;font style=&quot;font-size: 11px;&quot;&gt;4: Exibir id do produto&lt;/font&gt;" style="html=1;verticalAlign=bottom;endArrow=open;dashed=1;endSize=8;fontSize=10;exitX=-0.25;exitY=0.625;exitDx=0;exitDy=0;exitPerimeter=0;entryX=1;entryY=0.5;entryDx=0;entryDy=0;entryPerimeter=0;" parent="1" source="28" target="35" edge="1">
                    <mxGeometry relative="1" as="geometry">
                        <mxPoint x="375" y="310" as="sourcePoint"/>
                        <mxPoint x="130" y="314" as="targetPoint"/>
                    </mxGeometry>
                </mxCell>
                <mxCell id="56" value="3: Rotornar Id do pedido&amp;nbsp;" style="edgeLabel;html=1;align=center;verticalAlign=middle;resizable=0;points=[];" parent="1" vertex="1" connectable="0">
                    <mxGeometry x="539.9993492532798" y="249.99669434216668" as="geometry">
                        <mxPoint x="-6" y="1" as="offset"/>
                    </mxGeometry>
                </mxCell>
                <mxCell id="12" value="" style="html=1;verticalAlign=bottom;endArrow=block;" parent="1" edge="1">
                    <mxGeometry width="80" relative="1" as="geometry">
                        <mxPoint x="90" y="224" as="sourcePoint"/>
                        <mxPoint x="400" y="224" as="targetPoint"/>
                        <Array as="points">
                            <mxPoint x="210" y="224"/>
                            <mxPoint x="240" y="224"/>
                            <mxPoint x="270" y="224"/>
                        </Array>
                    </mxGeometry>
                </mxCell>
                <mxCell id="14" value="1: Enviar&amp;nbsp; Informações do cliente, produtos, endereço e pagamento)" style="edgeLabel;html=1;align=center;verticalAlign=middle;resizable=0;points=[];" parent="12" vertex="1" connectable="0">
                    <mxGeometry x="0.219" relative="1" as="geometry">
                        <mxPoint x="-15" y="-34" as="offset"/>
                    </mxGeometry>
                </mxCell>
                <mxCell id="6" value="Sistema" style="shape=umlLifeline;perimeter=lifelinePerimeter;whiteSpace=wrap;html=1;container=1;collapsible=0;recursiveResize=0;outlineConnect=0;" parent="1" vertex="1">
                    <mxGeometry x="360" y="140" width="100" height="260" as="geometry"/>
                </mxCell>
                <mxCell id="13" value="" style="html=1;points=[];perimeter=orthogonalPerimeter;" parent="6" vertex="1">
                    <mxGeometry x="45" y="60" width="10" height="80" as="geometry"/>
                </mxCell>
                <mxCell id="28" value="" style="html=1;points=[];perimeter=orthogonalPerimeter;" parent="6" vertex="1">
                    <mxGeometry x="45" y="150" width="10" height="40" as="geometry"/>
                </mxCell>
            </root>
        </mxGraphModel>
    </diagram>
</mxfile>